{
	"patcher" : 	{
		"fileversion" : 1,
		"appversion" : 		{
			"major" : 8,
			"minor" : 6,
			"revision" : 0,
			"architecture" : "x64",
			"modernui" : 1
		}
,
		"classnamespace" : "box",
		"rect" : [ 250.0, 217.0, 1259.0, 579.0 ],
		"bglocked" : 0,
		"openinpresentation" : 0,
		"default_fontsize" : 12.0,
		"default_fontface" : 0,
		"default_fontname" : "Arial",
		"gridonopen" : 1,
		"gridsize" : [ 15.0, 15.0 ],
		"gridsnaponopen" : 1,
		"objectsnaponopen" : 1,
		"statusbarvisible" : 2,
		"toolbarvisible" : 1,
		"lefttoolbarpinned" : 0,
		"toptoolbarpinned" : 0,
		"righttoolbarpinned" : 0,
		"bottomtoolbarpinned" : 0,
		"toolbars_unpinned_last_save" : 0,
		"tallnewobj" : 0,
		"boxanimatetime" : 200,
		"enablehscroll" : 1,
		"enablevscroll" : 1,
		"devicewidth" : 0.0,
		"description" : "",
		"digest" : "",
		"tags" : "",
		"style" : "jgo2023",
		"subpatcher_template" : "TheSands",
		"assistshowspatchername" : 0,
		"boxes" : [ 			{
				"box" : 				{
					"annotation" : "## Load a folder with videos for a VIZZIE PLAYR module ##",
					"bgmode" : 1,
					"border" : 0,
					"clickthrough" : 0,
					"enablehscroll" : 0,
					"enablevscroll" : 0,
					"id" : "obj-47",
					"lockeddragscroll" : 0,
					"lockedsize" : 0,
					"maxclass" : "bpatcher",
					"name" : "vz.moviefoldr.maxpat",
					"numinlets" : 1,
					"numoutlets" : 1,
					"offset" : [ 0.0, 0.0 ],
					"outlettype" : [ "" ],
					"patching_rect" : [ 860.0, 56.0, 241.0, 98.0 ],
					"prototypename" : "pixl",
					"varname" : "moviefoldr[1]",
					"viewvisibility" : 1
				}

			}
, 			{
				"box" : 				{
					"annotation" : "## Load a folder with videos for a VIZZIE PLAYR module ##",
					"bgmode" : 1,
					"border" : 0,
					"clickthrough" : 0,
					"enablehscroll" : 0,
					"enablevscroll" : 0,
					"id" : "obj-46",
					"lockeddragscroll" : 0,
					"lockedsize" : 0,
					"maxclass" : "bpatcher",
					"name" : "vz.moviefoldr.maxpat",
					"numinlets" : 1,
					"numoutlets" : 1,
					"offset" : [ 0.0, 0.0 ],
					"outlettype" : [ "" ],
					"patching_rect" : [ 510.0, 51.0, 241.0, 98.0 ],
					"prototypename" : "pixl",
					"varname" : "moviefoldr",
					"viewvisibility" : 1
				}

			}
, 			{
				"box" : 				{
					"attr" : "drawcorners",
					"id" : "obj-38",
					"maxclass" : "attrui",
					"numinlets" : 1,
					"numoutlets" : 1,
					"outlettype" : [ "" ],
					"parameter_enable" : 0,
					"patching_rect" : [ 126.0, 420.0, 150.0, 22.0 ]
				}

			}
, 			{
				"box" : 				{
					"id" : "obj-39",
					"maxclass" : "comment",
					"numinlets" : 1,
					"numoutlets" : 0,
					"patching_rect" : [ 156.0, 347.5, 158.0, 20.0 ],
					"text" : "layer opacity"
				}

			}
, 			{
				"box" : 				{
					"floatoutput" : 1,
					"id" : "obj-40",
					"maxclass" : "slider",
					"numinlets" : 1,
					"numoutlets" : 1,
					"outlettype" : [ "" ],
					"parameter_enable" : 0,
					"patching_rect" : [ 126.0, 332.0, 218.0, 51.0 ],
					"size" : 1.0
				}

			}
, 			{
				"box" : 				{
					"id" : "obj-41",
					"maxclass" : "message",
					"numinlets" : 2,
					"numoutlets" : 1,
					"outlettype" : [ "" ],
					"patching_rect" : [ 126.0, 388.0, 89.0, 22.0 ],
					"text" : "color 1 1 1 $1"
				}

			}
, 			{
				"box" : 				{
					"id" : "obj-42",
					"maxclass" : "message",
					"numinlets" : 2,
					"numoutlets" : 1,
					"outlettype" : [ "" ],
					"patching_rect" : [ 222.0, 455.0, 45.0, 22.0 ],
					"text" : "layer 3"
				}

			}
, 			{
				"box" : 				{
					"id" : "obj-43",
					"maxclass" : "message",
					"numinlets" : 2,
					"numoutlets" : 1,
					"outlettype" : [ "" ],
					"patching_rect" : [ 173.0, 455.0, 45.0, 22.0 ],
					"text" : "layer 2"
				}

			}
, 			{
				"box" : 				{
					"id" : "obj-44",
					"maxclass" : "message",
					"numinlets" : 2,
					"numoutlets" : 1,
					"outlettype" : [ "" ],
					"patching_rect" : [ 126.0, 455.0, 45.0, 22.0 ],
					"text" : "layer 1"
				}

			}
, 			{
				"box" : 				{
					"id" : "obj-45",
					"maxclass" : "newobj",
					"numinlets" : 1,
					"numoutlets" : 2,
					"outlettype" : [ "", "" ],
					"patching_rect" : [ 94.0, 492.0, 206.0, 22.0 ],
					"text" : "jit.gl.cornerpin final @blend_enable 1"
				}

			}
, 			{
				"box" : 				{
					"attr" : "drawcorners",
					"id" : "obj-30",
					"maxclass" : "attrui",
					"numinlets" : 1,
					"numoutlets" : 1,
					"outlettype" : [ "" ],
					"parameter_enable" : 0,
					"patching_rect" : [ 542.0, 429.0, 150.0, 22.0 ]
				}

			}
, 			{
				"box" : 				{
					"id" : "obj-31",
					"maxclass" : "comment",
					"numinlets" : 1,
					"numoutlets" : 0,
					"patching_rect" : [ 572.0, 356.5, 158.0, 20.0 ],
					"text" : "layer opacity"
				}

			}
, 			{
				"box" : 				{
					"floatoutput" : 1,
					"id" : "obj-32",
					"maxclass" : "slider",
					"numinlets" : 1,
					"numoutlets" : 1,
					"outlettype" : [ "" ],
					"parameter_enable" : 0,
					"patching_rect" : [ 542.0, 341.0, 218.0, 51.0 ],
					"size" : 1.0
				}

			}
, 			{
				"box" : 				{
					"id" : "obj-33",
					"maxclass" : "message",
					"numinlets" : 2,
					"numoutlets" : 1,
					"outlettype" : [ "" ],
					"patching_rect" : [ 542.0, 397.0, 89.0, 22.0 ],
					"text" : "color 1 1 1 $1"
				}

			}
, 			{
				"box" : 				{
					"id" : "obj-34",
					"maxclass" : "message",
					"numinlets" : 2,
					"numoutlets" : 1,
					"outlettype" : [ "" ],
					"patching_rect" : [ 638.0, 464.0, 45.0, 22.0 ],
					"text" : "layer 3"
				}

			}
, 			{
				"box" : 				{
					"id" : "obj-35",
					"maxclass" : "message",
					"numinlets" : 2,
					"numoutlets" : 1,
					"outlettype" : [ "" ],
					"patching_rect" : [ 589.0, 464.0, 45.0, 22.0 ],
					"text" : "layer 2"
				}

			}
, 			{
				"box" : 				{
					"id" : "obj-36",
					"maxclass" : "message",
					"numinlets" : 2,
					"numoutlets" : 1,
					"outlettype" : [ "" ],
					"patching_rect" : [ 542.0, 464.0, 45.0, 22.0 ],
					"text" : "layer 1"
				}

			}
, 			{
				"box" : 				{
					"id" : "obj-37",
					"maxclass" : "newobj",
					"numinlets" : 1,
					"numoutlets" : 2,
					"outlettype" : [ "", "" ],
					"patching_rect" : [ 510.0, 501.0, 206.0, 22.0 ],
					"text" : "jit.gl.cornerpin final @blend_enable 1"
				}

			}
, 			{
				"box" : 				{
					"attr" : "drawcorners",
					"id" : "obj-29",
					"maxclass" : "attrui",
					"numinlets" : 1,
					"numoutlets" : 1,
					"outlettype" : [ "" ],
					"parameter_enable" : 0,
					"patching_rect" : [ 892.0, 429.0, 150.0, 22.0 ]
				}

			}
, 			{
				"box" : 				{
					"id" : "obj-27",
					"maxclass" : "comment",
					"numinlets" : 1,
					"numoutlets" : 0,
					"patching_rect" : [ 922.0, 356.5, 158.0, 20.0 ],
					"text" : "layer opacity"
				}

			}
, 			{
				"box" : 				{
					"floatoutput" : 1,
					"id" : "obj-25",
					"maxclass" : "slider",
					"numinlets" : 1,
					"numoutlets" : 1,
					"outlettype" : [ "" ],
					"parameter_enable" : 0,
					"patching_rect" : [ 892.0, 341.0, 218.0, 51.0 ],
					"size" : 1.0
				}

			}
, 			{
				"box" : 				{
					"id" : "obj-22",
					"maxclass" : "message",
					"numinlets" : 2,
					"numoutlets" : 1,
					"outlettype" : [ "" ],
					"patching_rect" : [ 892.0, 397.0, 89.0, 22.0 ],
					"text" : "color 1 1 1 $1"
				}

			}
, 			{
				"box" : 				{
					"id" : "obj-17",
					"maxclass" : "message",
					"numinlets" : 2,
					"numoutlets" : 1,
					"outlettype" : [ "" ],
					"patching_rect" : [ 988.0, 464.0, 45.0, 22.0 ],
					"text" : "layer 3"
				}

			}
, 			{
				"box" : 				{
					"id" : "obj-18",
					"maxclass" : "message",
					"numinlets" : 2,
					"numoutlets" : 1,
					"outlettype" : [ "" ],
					"patching_rect" : [ 939.0, 464.0, 45.0, 22.0 ],
					"text" : "layer 2"
				}

			}
, 			{
				"box" : 				{
					"id" : "obj-19",
					"maxclass" : "message",
					"numinlets" : 2,
					"numoutlets" : 1,
					"outlettype" : [ "" ],
					"patching_rect" : [ 892.0, 464.0, 45.0, 22.0 ],
					"text" : "layer 1"
				}

			}
, 			{
				"box" : 				{
					"id" : "obj-20",
					"maxclass" : "newobj",
					"numinlets" : 1,
					"numoutlets" : 2,
					"outlettype" : [ "", "" ],
					"patching_rect" : [ 860.0, 501.0, 206.0, 22.0 ],
					"text" : "jit.gl.cornerpin final @blend_enable 1"
				}

			}
, 			{
				"box" : 				{
					"annotation" : "## The VIZZIE video player/looper ##",
					"bgmode" : 1,
					"border" : 0,
					"clickthrough" : 0,
					"enablehscroll" : 0,
					"enablevscroll" : 0,
					"id" : "obj-12",
					"lockeddragscroll" : 0,
					"lockedsize" : 0,
					"maxclass" : "bpatcher",
					"name" : "vz.playr.maxpat",
					"numinlets" : 7,
					"numoutlets" : 2,
					"offset" : [ 0.0, 0.0 ],
					"outlettype" : [ "jit_gl_texture", "" ],
					"patching_rect" : [ 860.0, 172.0, 348.0, 158.0 ],
					"prototypename" : "pixl",
					"varname" : "playr[1]",
					"viewvisibility" : 1
				}

			}
, 			{
				"box" : 				{
					"annotation" : "## The VIZZIE video player/looper ##",
					"bgmode" : 1,
					"border" : 0,
					"clickthrough" : 0,
					"enablehscroll" : 0,
					"enablevscroll" : 0,
					"id" : "obj-11",
					"lockeddragscroll" : 0,
					"lockedsize" : 0,
					"maxclass" : "bpatcher",
					"name" : "vz.playr.maxpat",
					"numinlets" : 7,
					"numoutlets" : 2,
					"offset" : [ 0.0, 0.0 ],
					"outlettype" : [ "jit_gl_texture", "" ],
					"patching_rect" : [ 510.0, 172.0, 348.0, 158.0 ],
					"prototypename" : "pixl",
					"varname" : "playr",
					"viewvisibility" : 1
				}

			}
, 			{
				"box" : 				{
					"id" : "obj-5",
					"maxclass" : "toggle",
					"numinlets" : 1,
					"numoutlets" : 1,
					"outlettype" : [ "int" ],
					"parameter_enable" : 0,
					"patching_rect" : [ 67.0, 93.0, 24.0, 24.0 ]
				}

			}
, 			{
				"box" : 				{
					"id" : "obj-3",
					"maxclass" : "newobj",
					"numinlets" : 1,
					"numoutlets" : 3,
					"outlettype" : [ "jit_matrix", "bang", "" ],
					"patching_rect" : [ 67.0, 139.0, 75.0, 22.0 ],
					"text" : "jit.world final"
				}

			}
, 			{
				"box" : 				{
					"id" : "obj-1",
					"maxclass" : "newobj",
					"numinlets" : 1,
					"numoutlets" : 2,
					"outlettype" : [ "jit_gl_texture", "" ],
					"patching_rect" : [ 95.0, 212.0, 361.0, 22.0 ],
					"text" : "jit.gl.syphonclient final @servername rippleshape @appname max"
				}

			}
 ],
		"lines" : [ 			{
				"patchline" : 				{
					"destination" : [ "obj-45", 0 ],
					"source" : [ "obj-1", 0 ]
				}

			}
, 			{
				"patchline" : 				{
					"destination" : [ "obj-37", 0 ],
					"source" : [ "obj-11", 0 ]
				}

			}
, 			{
				"patchline" : 				{
					"destination" : [ "obj-20", 0 ],
					"source" : [ "obj-12", 0 ]
				}

			}
, 			{
				"patchline" : 				{
					"destination" : [ "obj-20", 0 ],
					"source" : [ "obj-17", 0 ]
				}

			}
, 			{
				"patchline" : 				{
					"destination" : [ "obj-20", 0 ],
					"source" : [ "obj-18", 0 ]
				}

			}
, 			{
				"patchline" : 				{
					"destination" : [ "obj-20", 0 ],
					"source" : [ "obj-19", 0 ]
				}

			}
, 			{
				"patchline" : 				{
					"destination" : [ "obj-20", 0 ],
					"source" : [ "obj-22", 0 ]
				}

			}
, 			{
				"patchline" : 				{
					"destination" : [ "obj-22", 0 ],
					"source" : [ "obj-25", 0 ]
				}

			}
, 			{
				"patchline" : 				{
					"destination" : [ "obj-20", 0 ],
					"source" : [ "obj-29", 0 ]
				}

			}
, 			{
				"patchline" : 				{
					"destination" : [ "obj-1", 0 ],
					"source" : [ "obj-3", 1 ]
				}

			}
, 			{
				"patchline" : 				{
					"destination" : [ "obj-37", 0 ],
					"source" : [ "obj-30", 0 ]
				}

			}
, 			{
				"patchline" : 				{
					"destination" : [ "obj-33", 0 ],
					"source" : [ "obj-32", 0 ]
				}

			}
, 			{
				"patchline" : 				{
					"destination" : [ "obj-37", 0 ],
					"source" : [ "obj-33", 0 ]
				}

			}
, 			{
				"patchline" : 				{
					"destination" : [ "obj-37", 0 ],
					"source" : [ "obj-34", 0 ]
				}

			}
, 			{
				"patchline" : 				{
					"destination" : [ "obj-37", 0 ],
					"source" : [ "obj-35", 0 ]
				}

			}
, 			{
				"patchline" : 				{
					"destination" : [ "obj-37", 0 ],
					"source" : [ "obj-36", 0 ]
				}

			}
, 			{
				"patchline" : 				{
					"destination" : [ "obj-45", 0 ],
					"source" : [ "obj-38", 0 ]
				}

			}
, 			{
				"patchline" : 				{
					"destination" : [ "obj-41", 0 ],
					"source" : [ "obj-40", 0 ]
				}

			}
, 			{
				"patchline" : 				{
					"destination" : [ "obj-45", 0 ],
					"source" : [ "obj-41", 0 ]
				}

			}
, 			{
				"patchline" : 				{
					"destination" : [ "obj-45", 0 ],
					"source" : [ "obj-42", 0 ]
				}

			}
, 			{
				"patchline" : 				{
					"destination" : [ "obj-45", 0 ],
					"source" : [ "obj-43", 0 ]
				}

			}
, 			{
				"patchline" : 				{
					"destination" : [ "obj-45", 0 ],
					"source" : [ "obj-44", 0 ]
				}

			}
, 			{
				"patchline" : 				{
					"destination" : [ "obj-11", 0 ],
					"source" : [ "obj-46", 0 ]
				}

			}
, 			{
				"patchline" : 				{
					"destination" : [ "obj-12", 0 ],
					"source" : [ "obj-47", 0 ]
				}

			}
, 			{
				"patchline" : 				{
					"destination" : [ "obj-3", 0 ],
					"source" : [ "obj-5", 0 ]
				}

			}
 ],
		"parameters" : 		{
			"obj-11::obj-10" : [ "pictctrl[1]", "pictctrl[1]", 0 ],
			"obj-11::obj-112::obj-119" : [ "Speed high", "Speed high", 0 ],
			"obj-11::obj-112::obj-120" : [ "Rate range", "Rate range", 0 ],
			"obj-11::obj-112::obj-121" : [ "Speed low", "Speed low", 0 ],
			"obj-11::obj-112::obj-16" : [ "Playback range", "Playback range", 0 ],
			"obj-11::obj-112::obj-40" : [ "Playback controls", "Playback controls", 0 ],
			"obj-11::obj-112::obj-79" : [ "Playback position", "Playback position", 0 ],
			"obj-11::obj-112::obj-89" : [ "Reset range", "Reset range", 0 ],
			"obj-11::obj-112::obj-92" : [ "Reset speed", "Reset speed", 0 ],
			"obj-11::obj-20" : [ "pictctrl[2]", "pictctrl[1]", 0 ],
			"obj-11::obj-28" : [ "pictctrl[279]", "pictctrl[1]", 0 ],
			"obj-11::obj-40" : [ "pictctrl[283]", "pictctrl[1]", 0 ],
			"obj-11::obj-51" : [ "moviepath", "moviepath", 0 ],
			"obj-11::obj-60" : [ "pictctrl[282]", "pictctrl[1]", 0 ],
			"obj-11::obj-64" : [ "pictctrl[284]", "pictctrl[1]", 0 ],
			"obj-11::obj-81" : [ "pictctrl[281]", "pictctrl[1]", 0 ],
			"obj-11::obj-83" : [ "pictctrl[280]", "pictctrl[1]", 0 ],
			"obj-11::obj-89" : [ "moviename", "moviename", 0 ],
			"obj-12::obj-10" : [ "pictctrl[8]", "pictctrl[1]", 0 ],
			"obj-12::obj-112::obj-119" : [ "Speed high[1]", "Speed high", 0 ],
			"obj-12::obj-112::obj-120" : [ "Rate range[1]", "Rate range", 0 ],
			"obj-12::obj-112::obj-121" : [ "Speed low[1]", "Speed low", 0 ],
			"obj-12::obj-112::obj-16" : [ "Playback range[1]", "Playback range", 0 ],
			"obj-12::obj-112::obj-40" : [ "Playback controls[1]", "Playback controls", 0 ],
			"obj-12::obj-112::obj-79" : [ "Playback position[1]", "Playback position", 0 ],
			"obj-12::obj-112::obj-89" : [ "Reset range[1]", "Reset range", 0 ],
			"obj-12::obj-112::obj-92" : [ "Reset speed[1]", "Reset speed", 0 ],
			"obj-12::obj-20" : [ "pictctrl[6]", "pictctrl[1]", 0 ],
			"obj-12::obj-28" : [ "pictctrl[10]", "pictctrl[1]", 0 ],
			"obj-12::obj-40" : [ "pictctrl[9]", "pictctrl[1]", 0 ],
			"obj-12::obj-51" : [ "moviepath[1]", "moviepath", 0 ],
			"obj-12::obj-60" : [ "pictctrl[7]", "pictctrl[1]", 0 ],
			"obj-12::obj-64" : [ "pictctrl[3]", "pictctrl[1]", 0 ],
			"obj-12::obj-81" : [ "pictctrl[5]", "pictctrl[1]", 0 ],
			"obj-12::obj-83" : [ "pictctrl[4]", "pictctrl[1]", 0 ],
			"obj-12::obj-89" : [ "moviename[1]", "moviename", 0 ],
			"obj-46::obj-30" : [ "pictctrl[41]", "pictctrl[1]", 0 ],
			"obj-46::obj-41" : [ "pictctrl[42]", "pictctrl[1]", 0 ],
			"obj-46::obj-5" : [ "Menu", "Menu", 0 ],
			"obj-47::obj-30" : [ "pictctrl[12]", "pictctrl[1]", 0 ],
			"obj-47::obj-41" : [ "pictctrl[11]", "pictctrl[1]", 0 ],
			"obj-47::obj-5" : [ "Menu[1]", "Menu", 0 ],
			"parameterbanks" : 			{

			}
,
			"parameter_overrides" : 			{
				"obj-12::obj-10" : 				{
					"parameter_longname" : "pictctrl[8]"
				}
,
				"obj-12::obj-112::obj-119" : 				{
					"parameter_longname" : "Speed high[1]"
				}
,
				"obj-12::obj-112::obj-121" : 				{
					"parameter_longname" : "Speed low[1]"
				}
,
				"obj-12::obj-112::obj-89" : 				{
					"parameter_longname" : "Reset range[1]"
				}
,
				"obj-12::obj-112::obj-92" : 				{
					"parameter_longname" : "Reset speed[1]"
				}
,
				"obj-12::obj-20" : 				{
					"parameter_longname" : "pictctrl[6]"
				}
,
				"obj-12::obj-28" : 				{
					"parameter_longname" : "pictctrl[10]"
				}
,
				"obj-12::obj-40" : 				{
					"parameter_longname" : "pictctrl[9]"
				}
,
				"obj-12::obj-60" : 				{
					"parameter_longname" : "pictctrl[7]"
				}
,
				"obj-12::obj-64" : 				{
					"parameter_longname" : "pictctrl[3]"
				}
,
				"obj-12::obj-81" : 				{
					"parameter_longname" : "pictctrl[5]"
				}
,
				"obj-12::obj-83" : 				{
					"parameter_longname" : "pictctrl[4]"
				}
,
				"obj-47::obj-30" : 				{
					"parameter_longname" : "pictctrl[12]"
				}
,
				"obj-47::obj-41" : 				{
					"parameter_longname" : "pictctrl[11]"
				}

			}
,
			"inherited_shortname" : 1
		}
,
		"dependency_cache" : [ 			{
				"name" : "data-handler.maxpat",
				"bootpath" : "~/Documents/eric singer/cyrender/Calabax-Wow-/Calabax-Wow project folder/patchers",
				"patcherrelativepath" : ".",
				"type" : "JSON",
				"implicit" : 1
			}
, 			{
				"name" : "jit.gl.syphonclient.mxo",
				"type" : "iLaX"
			}
, 			{
				"name" : "lo_hi_UI_control.maxpat",
				"bootpath" : "C74:/packages/Vizzie/patchers/utils",
				"type" : "JSON",
				"implicit" : 1
			}
, 			{
				"name" : "playr_controls.maxpat",
				"bootpath" : "C74:/packages/Vizzie/patchers/utils",
				"type" : "JSON",
				"implicit" : 1
			}
, 			{
				"name" : "vizzie-datatexconvert.js",
				"bootpath" : "~/Documents/eric singer/cyrender/Calabax-Wow-/Calabax-Wow project folder/code",
				"patcherrelativepath" : "../code",
				"type" : "TEXT",
				"implicit" : 1
			}
, 			{
				"name" : "vizzie-global.js",
				"bootpath" : "~/Documents/eric singer/cyrender/Calabax-Wow-/Calabax-Wow project folder/code",
				"patcherrelativepath" : "../code",
				"type" : "TEXT",
				"implicit" : 1
			}
, 			{
				"name" : "vz.moviefoldr.maxpat",
				"bootpath" : "C74:/packages/Vizzie/patchers",
				"type" : "JSON",
				"implicit" : 1
			}
, 			{
				"name" : "vz.playr.maxpat",
				"bootpath" : "C74:/packages/Vizzie/patchers",
				"type" : "JSON",
				"implicit" : 1
			}
, 			{
				"name" : "vzgl-blackframe.maxpat",
				"bootpath" : "C74:/packages/Vizzie/patchers/utils",
				"type" : "JSON",
				"implicit" : 1
			}
, 			{
				"name" : "vzgl-object.maxpat",
				"bootpath" : "~/Documents/eric singer/cyrender/Calabax-Wow-/Calabax-Wow project folder/patchers",
				"patcherrelativepath" : ".",
				"type" : "JSON",
				"implicit" : 1
			}
, 			{
				"name" : "vzgl-pwindow.maxpat",
				"bootpath" : "C74:/packages/Vizzie/patchers/utils",
				"type" : "JSON",
				"implicit" : 1
			}
 ],
		"autosave" : 0,
		"styles" : [ 			{
				"name" : "jgo2023",
				"default" : 				{
					"accentcolor" : [ 0.352941, 0.45098, 0.435294, 1.0 ],
					"bgcolor" : [ 0.14902, 0.176471, 0.25098, 1.0 ],
					"bgfillcolor" : 					{
						"angle" : 270.0,
						"color" : [ 0.290196, 0.309804, 0.301961, 1.0 ],
						"color1" : [ 0.352941, 0.45098, 0.435294, 1.0 ],
						"color2" : [ 0.14902, 0.176471, 0.25098, 1.0 ],
						"proportion" : 0.39,
						"type" : "gradient"
					}
,
					"clearcolor" : [ 0.0, 0.0, 0.0, 0.2 ],
					"color" : [ 1.0, 0.0, 0.27843137254902, 1.0 ],
					"editing_bgcolor" : [ 0.325490196078431, 0.329411764705882, 0.435294117647059, 1.0 ],
					"elementcolor" : [ 0.156862745098039, 0.243137254901961, 1.0, 1.0 ],
					"locked_bgcolor" : [ 0.149019607843137, 0.4, 0.588235294117647, 1.0 ],
					"patchlinecolor" : [ 0.0, 0.0, 0.0, 0.9 ],
					"selectioncolor" : [ 0.352941, 0.45098, 0.435294, 1.0 ],
					"textcolor" : [ 1.0, 0.945098039215686, 0.945098039215686, 1.0 ],
					"textcolor_inverse" : [ 0.968627, 0.866667, 0.52549, 1.0 ]
				}
,
				"parentstyle" : "",
				"multi" : 0
			}
 ]
	}

}
